<svg xmlns="http://www.w3.org/2000/svg" viewBox="0 0 128 128" width="128" height="128">
  <circle cx="64" cy="64" r="60" fill="#4a90e2"/>
  <path d="M 45 55 L 55 45 C 60 40, 68 40, 73 45 L 83 55 C 88 60, 88 68, 83 73 L 73 83 C 68 88, 60 88, 55 83 L 50 78" 
        fill="none" stroke="white" stroke-width="6" stroke-linecap="round"/>
  <path d="M 83 73 L 73 83 C 68 88, 60 88, 55 83 L 45 73 C 40 68, 40 60, 45 55 L 55 45 C 60 40, 68 40, 73 45 L 78 50" 
        fill="none" stroke="white" stroke-width="6" stroke-linecap="round"/>
  <rect x="85" y="75" width="25" height="3" fill="white" rx="1"/>
  <rect x="85" y="82" width="20" height="3" fill="white" rx="1"/>
  <rect x="85" y="89" width="22" height="3" fill="white" rx="1"/>
</svg>
